<svg id="Capa_1" data-name="Capa 1" xmlns="http://www.w3.org/2000/svg" viewBox="0 0 288.42 288.42"><defs><style>.cls-1{fill:#fff;}</style></defs><title>cam</title><path class="cls-1" d="M419,188.35l-4,0-11.92-25.53c-7.11-14.59-13-14.63-20.27-14.67l-88.78-.57c-7.27,0-13.16-.08-20.45,14.42L261.4,187.35l-40-.26c-24.89-.16-45.2,20.12-45.36,45.28l-.65,105.22c-.16,25.17,19.9,45.7,44.79,45.86l197.61,1.26c24.89.16,45.2-20.12,45.36-45.29l.66-105.22C464,209,443.94,188.51,419,188.35Zm-196.26,53.3a14.55,14.55,0,1,1,14.48-14.46A14.47,14.47,0,0,1,222.78,241.65ZM330,351.42c-39.73-.25-71.74-33-71.49-73.18s32.66-72.52,72.4-72.27,71.73,33,71.48,73.18S369.74,351.67,330,351.42Z" transform="translate(-175.42 -96.29)"/><ellipse class="cls-1" cx="155.05" cy="182.41" rx="43.17" ry="43.64"/><path class="cls-1" d="M237.62,169s7.28-14.5,14.52-21.72,21.68-14.41,21.68-14.41-14.35-7.37-21.5-14.68-14.25-21.91-14.25-21.91-7.28,14.5-14.52,21.72-21.68,14.41-21.68,14.41,14.35,7.36,21.5,14.68S237.62,169,237.62,169Z" transform="translate(-175.42 -96.29)"/></svg>