<svg id="Capa_1" data-name="Capa 1" xmlns="http://www.w3.org/2000/svg" viewBox="0 0 288.42 288.42"><defs><style>.cls-1{fill:#fff;}</style></defs><title>desing</title><path class="cls-1" d="M212.21,142.86a18.14,18.14,0,0,0,18.62-7.38,4.81,4.81,0,0,1,3.29-1.51c8.94-.12,17.88-.07,26.83-.06.92,0,1.85.09,3.47.18-20.42,11.24-32.52,26.45-36.56,46.45H216.14v27.6h32.78V180.48h-9.21c1.8-19.34,26.06-47.12,66.12-46.49,19.59.31,35.94,6.9,48.86,19.26C362.78,161,368,169.94,370,180.62h-9.68v27.6H393V180.39H381.31a60.56,60.56,0,0,0-12.15-26.52c-6.26-7.93-14.4-14.29-24.64-20,8.86,0,16.57.05,24.28,0,2.19,0,3.48.34,4.65,2.19,4,6.27,13.05,8.79,20.79,6.05s11.76-10.16,9.29-17c-1.89-5.28-6.65-7.91-12.34-9.78h-6.71c-5.22,1.54-9.5,4-12,8.33-.36.64-2.24.93-3.42.93q-40.1.08-80.19,0c-17.9,0-35.79,0-53.68,0-2.35,0-3.89-.35-5-2.32-2.15-3.77-6.42-5.49-10.78-7h-6.71a15.61,15.61,0,0,1-1.47.6c-7.58,2.22-12.36,7.9-11.88,14.1S205.21,141.58,212.21,142.86Zm25.65,56.23c-3,0-6.07.07-9.13-.06-.59,0-1.59-.8-1.62-1.26-.16-2.58-.08-5.17-.08-7.89h10.83Zm133.45-9.18h10.91c0,2.64.1,5.14-.08,7.63a2.35,2.35,0,0,1-1.7,1.49c-3,.16-5.94.07-9.13.07Zm16.23-65.18c3.1-.08,5.63,1.92,5.66,4.48s-2.57,4.68-5.56,4.63-5.23-2-5.26-4.55S384.58,124.81,387.54,124.73Zm-171.52,0c3,0,5.3,1.93,5.35,4.43s-2.56,4.7-5.53,4.66-5.24-2-5.29-4.52S212.86,124.74,216,124.77Z" transform="translate(-160.41 -115.29)"/><path class="cls-1" d="M448.79,232.71a17.44,17.44,0,0,0-4.92-12.58c-5-5.24-11.76-7.17-19.52-7.17h-79c1.13-5.74,2.06-11,3.27-16.26a6.1,6.1,0,0,0-1.71-6.18c-12.47-13.26-24.76-26.64-37.12-40-1.68-1.82-3.44-3.59-5.29-5.52-14.28,15.4-28.24,30.54-42.36,45.57a5.91,5.91,0,0,0-1.65,5.93c1.18,5.32,2.15,10.68,3.29,16.43h-3.94q-37.57,0-75.14,0c-15,0-24.31,7.89-24.32,20.42q0,58.61,0,117.21a22.9,22.9,0,0,0,.89,6.68c2.64,8.71,11.17,14,22.66,14q33.39.06,66.76,0h3.83v23.33H232.79v9.13H376.47v-9.21h-3.75c-5.26,0-10.52.09-15.77,0-.85,0-2.39-.93-2.4-1.45-.16-7.12-.11-14.24-.11-21.78h4.16q33,0,66.08,0c14.66,0,24.05-7.63,24.09-19.95Q448.94,292,448.79,232.71Zm-143.9-38.19c2.89.12,5.16,2.19,5.11,4.65s-2.48,4.47-5.32,4.51-5.5-2.15-5.46-4.69S301.87,194.39,304.89,194.52Zm-32.35.37c8.55-9.38,17.2-18.7,26.28-28.51.15,1.28.3,2,.3,2.64,0,3.57-.24,7.15.05,10.7.29,3.73-.26,6.39-4.77,8.67-6.19,3.13-7.86,10-5.19,15.81s9.2,9.12,16.72,8.7c7.13-.4,13.14-4.68,14.79-10.53,1.7-6.07-1.23-12.2-7.71-15.16-2.35-1.08-3-2.22-2.95-4.35.2-5.16.09-10.33.12-15.49,0-.07.1-.14.49-.67l16.22,17.46c2.41,2.59,4.58,5.36,7.26,7.74,2.83,2.5,3.29,5.06,2.58,8.39-3.05,14.21-5.83,28.47-8.55,42.73-.39,2-1.25,2.6-3.61,2.59q-19.95-.13-39.92,0c-2.36,0-3.21-.55-3.6-2.59-2.89-15.19-6-30.35-8.94-45.53A3.27,3.27,0,0,1,272.54,194.89Zm-.8,63.38c.92-2.56,3.28-3.3,6.24-3.29q16.57,0,33.15,0c6.7,0,13.4,0,20.1,0,4.16,0,6.55,1.78,6.52,4.63s-2.46,4.51-6.67,4.52c-8.82,0-17.64,0-26.46,0-9,0-18.08,0-27.12,0C273.13,264.1,270.6,261.45,271.74,258.27Zm54.79,15.56v32.1H282.58v-32.1Zm-56.3-28.68a2.73,2.73,0,0,1-1.31,2.16c-12.09,5.76-11.08,19.83.62,24.78a3.61,3.61,0,0,1,1.69,2.88c.13,9.58.08,19.16.08,28.74,0,8.48,3.93,11.73,14,11.72q19.79,0,39.58,0c8.67,0,13-3.52,13-10.87,0-9.58.07-19.16,0-28.74,0-2.06.53-3.28,2.88-4.41,10.06-4.85,11.25-16.85,1.91-22.49-3.84-2.32-4.26-4.44-2.61-7.86h75.09V343.21H194.06v-102h75.3A20.46,20.46,0,0,1,270.23,245.15Zm73,149.14H266V371.43h77.26Zm94.3-43.67c0,8.08-4.05,11.42-13.72,11.42H185c-9.17,0-13.31-3.45-13.31-11.2q0-58.87,0-117.77c0-7.14,4.28-10.69,12.81-10.7h81.28c.59,3.1,1.13,5.94,1.76,9.23H182.75V352.44H426.42V231.66H341.73c.62-3.28,1.16-6.19,1.75-9.29h81.35c8.51,0,12.74,3.56,12.74,10.75Q437.59,291.88,437.57,350.62Z" transform="translate(-160.41 -115.29)"/><path class="cls-1" d="M215.79,292.43H204.92v8.81h10.87Z" transform="translate(-160.41 -115.29)"/><path class="cls-1" d="M237.91,292.32H227.22v8.89h10.69Z" transform="translate(-160.41 -115.29)"/><path class="cls-1" d="M260.13,292.38H249.34v8.87h10.79Z" transform="translate(-160.41 -115.29)"/><path class="cls-1" d="M359.91,292.34H349.16v9h10.75Z" transform="translate(-160.41 -115.29)"/><path class="cls-1" d="M382.08,292.33H371.25v8.91h10.83Z" transform="translate(-160.41 -115.29)"/><path class="cls-1" d="M404.32,292.44H393.46v8.79h10.86Z" transform="translate(-160.41 -115.29)"/></svg>