<svg id="Capa_1" data-name="Capa 1" xmlns="http://www.w3.org/2000/svg" viewBox="0 0 288.42 288.42"><defs><style>.cls-1{fill:#fff;fill-rule:evenodd;}</style></defs><title>net</title><path class="cls-1" d="M304.68,358.66l-.1-55.89,46.85-.32c-3.1,12.75-10.94,25.53-17.29,34.25-4.86,6.68-18.25,20.94-29.46,22Zm-66.22-56.2,46.81,0,0,56.15c-11.14-1-24.5-14.9-29.2-21.45a118.24,118.24,0,0,1-17.65-34.73Zm111.37,44.93c11.35-5,20.08-12.25,28.34-18.72,2.75-2.16,3.4-3.81,5.85-6.1,5.11-4.77,13.12-13.86,15.9-20.1H371.37a148.28,148.28,0,0,1-9.67,24.24c-2,4-3.66,7-6,11.08-1.5,2.64-5.25,7.57-5.87,9.61ZM190,302.54c2.56,5.75,16.88,22.32,21.75,26.13,8.13,6.36,17.15,13.87,28.35,18.72-.74-2.3-4.59-7.3-6.21-10.13l-11.19-22.95c-5.59-14.14,2.07-12.56-32.7-11.77Zm42.84-20.3c-1.94-5.37-5-25.57-4.28-31.58-1.09-2.17-1-2.85-.78-5.85l57.69-.39c.77,5.83,1.14,34.77-.36,39l-49.86.15c-4-.13-1,.19-2.41-1.28Zm176.48,1.07H376.62c.76-6.13,2.19-12.52,3-19,.76-6.06.8-13.49,1.83-19.36l37.78-.11c.17,7.91-4.87,34.93-10,38.46ZM170.6,244.91l37.85,0c1,6.22,1,13.24,1.81,19.46.85,6.6,2.15,12.62,3,19H180.6c-5.13-3.81-10.12-30.31-10-38.4Zm186.46,37.3c-1.21,1.52,1.38,1.18-2.38,1.3H304.81c-1.53-4.49-1.12-33.05-.38-38.77l57.71-.29-.33,2.71c.31,7.45-2.33,28.67-4.75,35.06Zm-52-95.13,52.19.2c1.09,9.89,4.75,20.16,3.84,30.45,1.26,1.38,1.07,5.39.93,8.1l-57.5-.24c-.66-5.71-.24-13.44-.24-19.39l.48-18.48c0-.36.2-.43.3-.64ZM228.8,216.92c-.68-10,2.69-20,3.77-29.79l52.25,0c1.29,2.66.78,6,.77,9.72l-.27,29-57.49-.31c-.09-1.93-.52-7.89,1-8.61Zm190.5,8.65-37.84-.11c-1-6-1.08-13.24-1.82-19.4-.78-6.41-2.29-12.86-3-18.94h32.67c5.71,4.23,10.12,29.81,10,38.45Zm-248.68-.07c-.18-7.69,4.92-34.9,10-38.38l32.68,0c-.75,6.14-2.19,12.52-3,19-.8,6.3-.81,13.15-1.8,19.42l-37.83-.06ZM304.68,111.77c11.38,1.08,24.49,15.13,29.47,22,6.38,8.75,14.17,21.52,17.29,34.26l-46.86-.35.1-55.86ZM238.46,168c3.19-13.37,11.14-25.73,17.66-34.72,4.62-6.37,18.08-20.55,29.19-21.44l-.05,56.15Zm133.29-.24,28.15.26C397.29,161.9,389,152.53,384,147.85c-2.42-2.25-3.18-4-5.84-6.09-8.28-6.54-17-13.66-28.38-18.73l11.93,20.66c3.52,7,6.67,18.27,10,24ZM190,167.87l27.32.1c2.7-1.82,8.6-19.49,10.63-23.67s3.66-7.13,5.94-11.13c1.61-2.81,5.51-7.85,6.2-10.14-11.41,5.13-20,12.15-28.36,18.72-4.82,3.79-19.22,20.46-21.73,26.12Zm-39.24,56.91v20.85c1.24,2.94,3.53,21.77,5.23,27.91a148.59,148.59,0,0,0,36.49,63.31c4.44,4.61,11.76,10.41,18.06,15.2a130.78,130.78,0,0,0,20.81,12.48c27.85,13.59,45.25,11.78,51.95,14.89h23.36C314,376,357,377.2,397,337.27c39.79-39.74,38.8-83.14,42.15-90.37V223.54c-1.6-3.45-3.71-21.42-5.62-28-9.73-33.38-28-57.75-55.17-77.91C345,92.89,312.48,94,305.37,91H284.52C281.78,92.16,262,94.77,256,96.41a136.18,136.18,0,0,0-24.06,9.18,153.19,153.19,0,0,0-39,27.53c-16.67,16.66-30.62,40.36-36.9,63.77C154.42,202.66,151.87,222.11,150.74,224.78Z" transform="translate(-150.74 -91)"/></svg>