<svg id="Capa_1" data-name="Capa 1" xmlns="http://www.w3.org/2000/svg" viewBox="0 0 288.42 288.42"><defs><style>.cls-1{fill:#fff;}</style></defs><title>print</title><path class="cls-1" d="M446.65,122c-20-.88-40-1.79-60-2.61q-96-4-192-7.82c-7.54-.3-13.38,5.3-16.62,17.38-3.15,11.71-5.78,23.86-8.63,35.82v6.94c1.78,7,5.3,6.75,8.85,6.17.34,1.61.61,2.94,1,4.59h34.44c.08,1.15.2,1.94.2,2.72q0,73.35,0,146.68a10,10,0,0,1-1.42,4.81c-3.65,5.44-7.34,10.84-11.21,15.78-2.21,2.83-3,5.94-2.15,10.78a27.81,27.81,0,0,1,5.38,2.05c2.22,1.33,3.9.43,5.63-2.19,2.34-3.56,5-6.54,7.27-10.16a12.06,12.06,0,0,0,1.57-5.65q.06-84-.07-168c0-7.26.11-14.48,3.75-20.94h-37.4c2.47-7.78,4.63-14.91,7-21.79a3.3,3.3,0,0,1,2.74-2.15c8,.16,16,.57,23.94.91l177.66,7.59c.88,0,1.76.2,2.87.33-1.85,8-3.52,15.51-5.39,22.85a3.08,3.08,0,0,1-2.34,2.15,32.11,32.11,0,0,1-7-.66c-1.6-.31-2.58.56-3.42,3.05-3.3,9.83-3.15,20.13-1.43,30.59a3,3,0,0,0,2.12,2.11c7.77.83,15.55,1.45,23.33,2.18,1.36.12,2.71.46,3.94.68v128H379.07v15.5h30.08a23.09,23.09,0,0,1-1.63,13c-2.3,5.2-4.14,11-6.47,16.19-2.12,4.72-1.73,9.65-1.39,15.23a53.42,53.42,0,0,1,7,.07c2,.28,3.25-1,4.41-3.89,5-12.39,9.85-25,15.28-36.78,3.25-7,2.41-14.27,2.41-22.35h-8.93V207c7.29.65,14.39,1.42,21.5,1.82a24.36,24.36,0,0,0,8.37-1c4.26-1.27,6.93-5.69,7.11-13.67.4-17.3.84-34.6,1.05-51.91C458,129.39,453.9,122.27,446.65,122Z" transform="translate(-169.4 -111.51)"/><path class="cls-1" d="M381.19,154.86c-1.14-.11-2.05-.24-3-.27-48-1.85-95.93-3.61-143.9-5.68-3.29-.14-5,1.92-6.3,6.67-3.37,12.14-4.67,25.06-4.68,38.39,0,44.93.08,89.86,0,134.79,0,14.91-1.7,28.85-8.95,38.85-2.07,2.85-3.72,6.63-5.76,10.35a6.52,6.52,0,0,0,1.28.68l58.67,8q28.2,3.87,56.42,7.72c14,1.9,28.07,3.8,42.11,5.54.77.1,2-1,2.34-2.11a138,138,0,0,0,5.65-38.9c-.11-40.8,0-81.6,0-122.41,0-17-.3-34,.06-51C375.36,174.59,375.83,163.33,381.19,154.86Z" transform="translate(-169.4 -111.51)"/></svg>