<svg id="Capa_1" data-name="Capa 1" xmlns="http://www.w3.org/2000/svg" xmlns:xlink="http://www.w3.org/1999/xlink" viewBox="0 0 276.84 276.84"><defs><style>.cls-1,.cls-2{fill-rule:evenodd;}.cls-1{fill:url(#GradientFill_2);}.cls-2{fill:#fff;}</style><linearGradient id="GradientFill_2" x1="322.79" y1="356.3" x2="322.79" y2="118.29" gradientUnits="userSpaceOnUse"><stop offset="0" stop-color="#00ac4c"/><stop offset="1" stop-color="#6bbe5f"/></linearGradient></defs><title>whatsapp</title><path class="cls-1" d="M322.8,118.29c-66.15,0-119.94,53.38-119.94,119a117.81,117.81,0,0,0,22.84,69.78l-15,44.19,46.08-14.65a120,120,0,0,0,66,19.68c66.12,0,119.92-53.38,119.92-119S388.92,118.29,322.8,118.29Z" transform="translate(-181.16 -101.42)"/><path class="cls-2" d="M458,236.28c0,74.47-60.84,134.85-135.9,134.85a136.05,136.05,0,0,1-65.69-16.78l-75.25,23.91,24.53-72.35a133.4,133.4,0,0,1-19.5-69.63c0-74.48,60.85-134.86,135.91-134.86S458,161.8,458,236.28ZM322.1,122.9h0c-63,0-114.26,50.85-114.26,113.38a112.17,112.17,0,0,0,21.76,66.48l-14.27,42.1,43.9-13.95a114.3,114.3,0,0,0,62.87,18.74c63,0,114.26-50.86,114.26-113.37S385.1,122.9,322.1,122.9Zm68.63,144.44h0c-.84-1.38-3.07-2.2-6.38-3.86s-19.73-9.65-22.78-10.75-5.28-1.65-7.49,1.65-8.61,10.76-10.56,13-3.87,2.48-7.21.83-14.07-5.15-26.79-16.4A100.45,100.45,0,0,1,291,228.88c-1.93-3.31-.19-5.09,1.46-6.74,1.5-1.49,3.34-3.87,5-5.79a22.37,22.37,0,0,0,3.33-5.53,6,6,0,0,0-.28-5.78c-.83-1.65-7.5-17.92-10.27-24.54s-5.55-6.36-7.5-6.36a47.52,47.52,0,0,0-5.53.58s-6.68.82-9.73,4.13-11.65,11.31-11.65,27.56,11.92,32,13.59,34.18,23,36.68,56.91,49.91,33.87,8.82,40,8.26,19.71-8,22.48-15.71S391.55,268.71,390.73,267.34Z" transform="translate(-181.16 -101.42)"/></svg>